<svg width="296" height="48" viewBox="0 0 296 48" fill="none" xmlns="http://www.w3.org/2000/svg">
<rect width="141.429" height="48" fill="#E13433"/>
<path d="M7.71257 13.2941C12.4238 8.45804 22.7028 10.617 23.2167 18.1301C21.5892 18.1301 19.9617 18.2165 18.4199 18.2165C17.8202 15.7984 15.4218 14.0713 13.0234 14.9349C10.4536 15.2803 10.0253 19.1664 12.2525 20.289C15.2505 22.0162 18.9338 22.3616 21.5892 24.6069C24.6729 27.1113 24.4159 32.4655 21.5036 34.9698C16.1927 39.6331 5.48546 37.0424 5.14282 29.0975C6.77033 29.0975 8.39783 29.0112 10.0253 29.0112C10.4536 32.0337 13.366 34.0199 16.3641 33.07C18.8481 32.6382 19.7904 29.0975 17.9059 27.4567C15.0792 25.3841 11.3102 25.2114 8.4835 23.1388C5.22848 20.9799 5.05716 15.8848 7.71257 13.2941Z" fill="white"/>
<path d="M33.2389 11.1351C34.7807 11.1351 36.3226 11.1351 37.8644 11.1351C38.0357 17.0074 37.6075 22.8798 38.0357 28.6657C38.464 33.1563 44.9741 34.1926 47.5438 30.9974C48.743 29.4429 48.5717 27.3704 48.6574 25.4705C48.6574 20.7208 48.6574 15.8848 48.6574 11.1351C50.1992 11.1351 51.7411 11.1351 53.2829 11.1351C53.1973 16.8347 53.3686 22.448 53.1973 28.1476C53.1116 31.6019 50.9702 34.9698 47.7151 36.2652C44.0318 37.7333 39.3206 37.4742 36.2369 34.7108C34.0955 32.8973 33.2389 29.9611 33.2389 27.1977C33.1532 21.8435 33.2389 16.4893 33.2389 11.1351Z" fill="white"/>
<path d="M63.8187 11.1351C68.4443 11.3941 73.3268 10.4442 77.781 11.9986C82.9205 13.9849 83.6915 21.8434 79.4085 25.0386C76.2392 27.4567 72.1276 26.6794 68.4443 26.8522C68.4443 30.1337 68.4443 33.4153 68.4443 36.6969C66.9024 36.6969 65.3606 36.6969 63.8187 36.6969C63.8187 28.1475 63.8187 19.6845 63.8187 11.1351ZM68.4443 14.9348C68.4443 17.6119 68.4443 20.289 68.4443 22.9661C70.7571 22.8797 73.0698 23.2251 75.2969 22.6206C78.2093 21.498 78.2093 16.4892 75.2969 15.2802C73.0698 14.6757 70.6714 15.0212 68.4443 14.9348Z" fill="white"/>
<path d="M91.2294 11.1351C96.7115 11.1351 102.279 11.1351 107.761 11.1351C107.761 12.3441 107.761 13.6395 107.761 14.9349C103.821 14.9349 99.7952 14.9349 95.8549 14.9349C95.8549 17.2665 95.8549 19.5982 95.8549 21.9298C99.4526 21.9298 103.05 21.9298 106.648 21.9298C106.648 23.1388 106.648 24.3479 106.648 25.5569C103.05 25.5569 99.4526 25.5569 95.8549 25.5569C95.8549 27.9749 95.8549 30.4792 95.8549 32.8973C99.7952 32.8973 103.735 32.8973 107.761 32.8973C107.761 34.1063 107.761 35.4016 107.761 36.697C102.194 36.697 96.7115 36.697 91.2294 36.697C91.2294 28.1476 91.2294 19.6845 91.2294 11.1351Z" fill="white"/>
<path d="M117.783 11.1351C122.152 11.3078 126.692 10.617 130.975 11.7396C135.343 13.035 137.228 18.6482 135.086 22.6207C134.316 24.3478 132.602 25.2114 131.06 26.1614C132.774 29.702 134.487 33.2427 136.286 36.697C134.487 36.697 132.774 36.697 131.06 36.7833C129.433 33.4154 127.891 30.0474 126.349 26.6795C125.064 26.6795 123.865 26.5931 122.58 26.5931C122.495 29.9611 122.495 33.329 122.495 36.697C120.953 36.697 119.411 36.697 117.869 36.697C117.783 28.1476 117.783 19.6845 117.783 11.1351ZM122.409 15.1076C122.409 17.7847 122.409 20.5481 122.409 23.2252C124.465 23.2252 126.521 23.3979 128.491 23.0525C131.831 22.3616 132.26 16.7484 129.09 15.5394C126.949 14.8485 124.636 15.1076 122.409 15.1076Z" fill="white"/>
<rect width="154.286" height="48" transform="translate(141.429)" fill="black"/>
<path d="M154.834 13.2794C161.036 8.45124 172.234 10.5204 174.129 18.7973C172.407 18.7973 170.684 18.7973 169.047 18.7973C166.808 13.538 158.452 13.8829 156.04 18.7973C154.49 21.9011 154.49 25.7808 155.782 28.9708C157.849 33.9714 166.119 34.5749 168.703 29.7468C169.306 28.626 169.564 27.4189 169.909 26.2981C167.755 26.2981 165.516 26.2981 163.362 26.2981C163.362 25.0911 163.362 23.9703 163.362 22.7632C167.066 22.7632 170.77 22.7632 174.474 22.7632C174.474 27.4189 174.474 32.0747 174.474 36.8166C173.01 36.8166 171.631 36.8166 170.167 36.8166C170.081 35.6958 169.995 34.6611 169.823 33.5403C165.257 39.6617 154.748 37.8512 151.561 31.2125C148.805 25.436 149.58 17.4178 154.834 13.2794Z" fill="white"/>
<path d="M215.045 11.2102C220.558 11.2102 226.157 11.2102 231.67 11.2102C231.67 12.5035 231.67 13.7105 231.67 15.0038C227.707 15.0038 223.659 15.0038 219.697 15.0038C219.697 17.3316 219.697 19.6595 219.697 21.9873C223.314 21.9873 226.932 21.9873 230.55 21.9873C230.55 23.1943 230.55 24.4014 230.55 25.6084C226.932 25.6084 223.314 25.6084 219.697 25.6084C219.697 28.0225 219.697 30.5228 219.697 32.9369C223.659 32.9369 227.707 32.9369 231.67 32.9369C231.67 34.1439 231.67 35.4371 231.67 36.7304C226.157 36.7304 220.558 36.7304 215.045 36.7304C215.045 28.1949 215.045 19.7457 215.045 11.2102Z" fill="white"/>
<path d="M243.385 13.2794C248.122 8.53751 258.459 10.7791 258.889 18.1938C257.253 18.1938 255.616 18.1938 253.98 18.1938C253.377 15.8659 251.137 14.0554 248.725 14.9175C246.313 15.1762 245.538 18.6249 247.433 20.0043C250.534 21.9873 254.583 22.1598 257.425 24.7463C260.354 27.2466 260.009 32.3333 257.253 34.8336C251.998 39.5756 240.887 37.0753 240.8 29.0571C242.437 29.0571 244.074 29.0571 245.71 29.0571C246.055 32.1609 249.242 34.0577 252.085 33.0231C254.755 32.5058 255.444 28.626 253.118 27.1603C250.103 25.3498 246.399 25.0911 243.643 22.7633C240.714 20.6079 240.714 15.6935 243.385 13.2794Z" fill="white"/>
<path d="M267.589 11.2102C274.136 11.2102 280.596 11.2102 287.143 11.2102C287.143 12.4172 287.143 13.7105 287.143 15.0038C284.645 15.0038 282.147 15.0038 279.735 15.0038C279.735 22.246 279.735 29.4882 279.735 36.7304C278.184 36.7304 276.634 36.7304 275.084 36.7304C275.084 29.4882 275.084 22.246 275.084 15.0038C272.586 15.0038 270.087 15.0038 267.676 15.0038C267.589 13.7105 267.589 12.5035 267.589 11.2102Z" fill="white"/>
<path d="M184.552 27.2465C184.466 21.9011 184.552 16.5556 184.552 11.2102C186.103 11.2102 187.653 11.2102 189.204 11.2102C189.376 17.1592 188.945 23.1081 189.462 29.0571C190.151 33.3679 196.698 34.2301 199.11 30.8677C200.229 29.3158 200.057 27.3328 200.143 25.5222C200.143 20.7803 200.143 15.9521 200.143 11.2102C201.694 11.2102 203.244 11.2102 204.795 11.2102C204.709 16.8143 204.881 22.4184 204.709 28.1087C204.623 31.5574 202.555 34.9198 199.368 36.2131C195.664 37.765 190.927 37.5063 187.739 34.9198C185.414 33.0231 184.552 30.0917 184.552 27.2465Z" fill="white"/>
</svg>
